<?xml version="1.0" encoding="utf-8"?>
<!-- Generator: Adobe Illustrator 21.1.0, SVG Export Plug-In . SVG Version: 6.00 Build 0)  -->
<svg version="1.2" baseProfile="tiny" id="Ebene_1" xmlns="http://www.w3.org/2000/svg" xmlns:xlink="http://www.w3.org/1999/xlink"
	 x="0px" y="0px" viewBox="0 0 234 68.3" overflow="scroll" xml:space="preserve">
<g>
	<path fill="#AECC53" d="M1.4,9c1.7-7.3,7.2-8.7,13.8-8.8C21.2,0,27.4,0,33.4,0c17.1,0,20.1,2.6,20.1,19.4c0,3.7,0,7.4-0.4,11.1
		c-0.9,7.9-4.7,10.6-12.6,11.3c-3.4,0.3-6.8,0.3-10.2,0.3h-9.2c-2.9,0-5.8-0.1-8.7-0.4C8.8,41.3,5,40.4,3,37.2
		c-2.5-4-2.5-11.1-2.5-15.8C0.5,17.3,0.5,13,1.4,9z M5.7,24.2c0,9,0.2,13.1,10.5,13.3l10.6,0.2h3.8c3.3,0,6.7-0.1,10.1-0.4
		c6.6-0.7,7.4-4.7,7.4-10.5c0.1-2.8,0.1-5.6,0.1-8.5c0-3.7-0.1-8.9-1.7-11.3c-0.7-1-1.9-1.7-3-2c-2.2-0.6-4.6-0.7-6.9-0.7L27,4.4
		l-9.6,0.2C8.5,4.7,6.1,5.7,5.9,15l-0.2,6.2V24.2z"/>
	<path fill="#AECC53" d="M66.8,41.7h-5V0.4h8.3l38,37.3V0.4h5v41.3H105L66.8,4.2V41.7z"/>
	<path fill="#AECC53" d="M125.6,41.7h-5.9l24.4-41.3h6.7l24.6,41.3h-5.8H125.6z M147.4,4.1l-19.6,33.3h39.5L147.4,4.1z"/>
	<path fill="#AECC53" d="M224.2,0.4h7.4l-20.4,19.3l22.9,22h-7.5l-20-19.5l-20,19.5h-7.5l22.9-22L181.3,0.4h7.3l17.9,16.9L224.2,0.4
		z"/>
</g>
<g>
	<path fill="#AECC53" d="M57.6,55.4V68h-1.2V55.4H57.6z"/>
	<path fill="#AECC53" d="M69.7,55.4v1h-4.4V68h-1.2V56.4h-4.4v-1L69.7,55.4L69.7,55.4z"/>
	<path fill="#AECC53" d="M78.4,65.5c0.2,0.4,0.5,0.8,0.9,1c0.4,0.3,0.8,0.4,1.3,0.6c0.5,0.1,1.1,0.2,1.6,0.2c0.3,0,0.7,0,1.1-0.1
		c0.4-0.1,0.8-0.2,1.1-0.5c0.3-0.2,0.6-0.5,0.8-0.8c0.2-0.3,0.3-0.7,0.3-1.2c0-0.4-0.1-0.7-0.2-0.9c-0.2-0.3-0.4-0.5-0.6-0.7
		c-0.3-0.2-0.5-0.3-0.8-0.4c-0.3-0.1-0.6-0.2-0.9-0.3l-2.8-0.7c-0.4-0.1-0.7-0.2-1.1-0.4c-0.3-0.1-0.7-0.3-0.9-0.6
		c-0.3-0.2-0.5-0.5-0.6-0.9c-0.2-0.3-0.2-0.8-0.2-1.3c0-0.3,0.1-0.7,0.2-1.1c0.1-0.4,0.3-0.8,0.7-1.2c0.3-0.4,0.8-0.7,1.3-0.9
		c0.6-0.3,1.3-0.4,2.2-0.4c0.6,0,1.2,0.1,1.8,0.2c0.6,0.2,1.1,0.4,1.5,0.7c0.4,0.3,0.8,0.7,1,1.2c0.3,0.5,0.4,1.1,0.4,1.7h-1.2
		c0-0.5-0.1-0.9-0.3-1.3c-0.2-0.4-0.4-0.7-0.8-0.9c-0.3-0.2-0.7-0.4-1.1-0.5c-0.4-0.1-0.8-0.2-1.3-0.2c-0.4,0-0.8,0-1.2,0.1
		c-0.4,0.1-0.7,0.2-1,0.4c-0.3,0.2-0.5,0.5-0.7,0.8c-0.2,0.3-0.3,0.7-0.3,1.2c0,0.3,0.1,0.6,0.2,0.8c0.1,0.2,0.2,0.4,0.4,0.6
		c0.2,0.2,0.4,0.3,0.6,0.4c0.2,0.1,0.5,0.2,0.7,0.2l3.1,0.8c0.4,0.1,0.9,0.3,1.3,0.4c0.4,0.2,0.7,0.4,1,0.6c0.3,0.3,0.5,0.6,0.7,0.9
		c0.2,0.4,0.3,0.8,0.3,1.3c0,0.1,0,0.3,0,0.6s-0.1,0.5-0.2,0.8c-0.1,0.3-0.3,0.5-0.5,0.8c-0.2,0.3-0.5,0.5-0.8,0.7
		c-0.4,0.2-0.8,0.4-1.3,0.5c-0.5,0.1-1.2,0.2-1.9,0.2c-0.7,0-1.4-0.1-2.1-0.3c-0.6-0.2-1.2-0.4-1.6-0.8c-0.4-0.4-0.8-0.8-1-1.4
		c-0.2-0.6-0.3-1.2-0.3-2h1.2C78.1,64.5,78.2,65,78.4,65.5z"/>
	<path fill="#AECC53" d="M89.1,59.2c0.2-0.8,0.6-1.5,1.1-2.1c0.5-0.6,1.1-1.1,1.9-1.5c0.7-0.4,1.6-0.5,2.6-0.5c1,0,1.9,0.2,2.6,0.5
		c0.7,0.4,1.4,0.8,1.9,1.5c0.5,0.6,0.9,1.3,1.1,2.1c0.2,0.8,0.4,1.6,0.4,2.5c0,0.9-0.1,1.7-0.4,2.5c-0.2,0.8-0.6,1.5-1.1,2.1
		c-0.5,0.6-1.1,1.1-1.9,1.4c-0.7,0.4-1.6,0.5-2.6,0.5c-1,0-1.9-0.2-2.6-0.5s-1.4-0.8-1.9-1.4c-0.5-0.6-0.9-1.3-1.1-2.1
		c-0.2-0.8-0.4-1.6-0.4-2.5C88.7,60.8,88.9,60,89.1,59.2z M90.2,63.7c0.2,0.7,0.5,1.3,0.8,1.8c0.4,0.5,0.9,0.9,1.5,1.3
		c0.6,0.3,1.3,0.5,2.2,0.5s1.6-0.2,2.1-0.5c0.6-0.3,1.1-0.7,1.5-1.3c0.4-0.5,0.7-1.1,0.8-1.8s0.3-1.3,0.3-2c0-0.7-0.1-1.4-0.3-2
		c-0.2-0.7-0.5-1.3-0.8-1.8c-0.4-0.5-0.9-0.9-1.5-1.3c-0.6-0.3-1.3-0.5-2.1-0.5c-0.8,0-1.6,0.2-2.2,0.5c-0.6,0.3-1.1,0.7-1.5,1.3
		c-0.4,0.5-0.7,1.1-0.8,1.8c-0.2,0.7-0.3,1.3-0.3,2C89.9,62.4,90,63.1,90.2,63.7z"/>
	<path fill="#AECC53" d="M104.5,55.4V67h7.1v1h-8.3V55.4H104.5z"/>
	<path fill="#AECC53" d="M114.3,55.4v7.8c0,0.7,0.1,1.4,0.2,1.9c0.2,0.5,0.4,0.9,0.7,1.3c0.3,0.3,0.7,0.6,1.2,0.7s1,0.2,1.6,0.2
		c0.6,0,1.1-0.1,1.6-0.2c0.5-0.1,0.8-0.4,1.2-0.7s0.6-0.7,0.7-1.3c0.2-0.5,0.2-1.1,0.2-1.9v-7.8h1.2v8.1c0,0.6-0.1,1.3-0.3,1.8
		c-0.2,0.6-0.5,1.1-0.9,1.5c-0.4,0.4-0.9,0.8-1.5,1s-1.4,0.4-2.3,0.4c-0.9,0-1.6-0.1-2.2-0.4c-0.6-0.3-1.1-0.6-1.5-1
		c-0.4-0.4-0.7-0.9-0.9-1.5c-0.2-0.6-0.3-1.2-0.3-1.8v-8.1L114.3,55.4L114.3,55.4z"/>
	<path fill="#AECC53" d="M134.9,55.4v1h-4.4V68h-1.2V56.4h-4.4v-1L134.9,55.4L134.9,55.4z"/>
	<path fill="#AECC53" d="M138.2,55.4V68H137V55.4H138.2z"/>
	<path fill="#AECC53" d="M141.3,59.2c0.2-0.8,0.6-1.5,1.1-2.1c0.5-0.6,1.1-1.1,1.9-1.5c0.8-0.4,1.6-0.5,2.6-0.5c1,0,1.9,0.2,2.6,0.5
		c0.7,0.4,1.4,0.8,1.9,1.5c0.5,0.6,0.9,1.3,1.1,2.1s0.4,1.6,0.4,2.5c0,0.9-0.1,1.7-0.4,2.5c-0.2,0.8-0.6,1.5-1.1,2.1
		c-0.5,0.6-1.1,1.1-1.9,1.4c-0.7,0.4-1.6,0.5-2.6,0.5c-1,0-1.9-0.2-2.6-0.5c-0.7-0.4-1.4-0.8-1.9-1.4c-0.5-0.6-0.9-1.3-1.1-2.1
		c-0.2-0.8-0.4-1.6-0.4-2.5C141,60.8,141.1,60,141.3,59.2z M142.4,63.7c0.2,0.7,0.5,1.3,0.8,1.8c0.4,0.5,0.9,0.9,1.5,1.3
		c0.6,0.3,1.3,0.5,2.2,0.5c0.8,0,1.6-0.2,2.1-0.5c0.6-0.3,1.1-0.7,1.5-1.3c0.4-0.5,0.7-1.1,0.9-1.8c0.2-0.7,0.3-1.3,0.3-2
		c0-0.7-0.1-1.4-0.3-2c-0.2-0.7-0.5-1.3-0.9-1.8c-0.4-0.5-0.9-0.9-1.5-1.3c-0.6-0.3-1.3-0.5-2.1-0.5c-0.8,0-1.6,0.2-2.2,0.5
		c-0.6,0.3-1.1,0.7-1.5,1.3c-0.4,0.5-0.7,1.1-0.8,1.8c-0.2,0.7-0.3,1.3-0.3,2C142.2,62.4,142.3,63.1,142.4,63.7z"/>
	<path fill="#AECC53" d="M156.9,55.4l7.4,10.7h0V55.4h1.2V68h-1.3l-7.4-10.7h0V68h-1.2V55.4H156.9z"/>
	<path fill="#AECC53" d="M169.7,65.5c0.2,0.4,0.5,0.8,0.9,1c0.4,0.3,0.8,0.4,1.3,0.6c0.5,0.1,1,0.2,1.6,0.2c0.3,0,0.7,0,1.1-0.1
		c0.4-0.1,0.8-0.2,1.1-0.5c0.3-0.2,0.6-0.5,0.8-0.8c0.2-0.3,0.3-0.7,0.3-1.2c0-0.4-0.1-0.7-0.2-0.9c-0.2-0.3-0.4-0.5-0.6-0.7
		c-0.3-0.2-0.5-0.3-0.8-0.4c-0.3-0.1-0.6-0.2-0.9-0.3l-2.8-0.7c-0.4-0.1-0.7-0.2-1.1-0.4c-0.3-0.1-0.7-0.3-0.9-0.6
		c-0.3-0.2-0.5-0.5-0.6-0.9c-0.2-0.3-0.2-0.8-0.2-1.3c0-0.3,0.1-0.7,0.2-1.1c0.1-0.4,0.3-0.8,0.7-1.2c0.3-0.4,0.8-0.7,1.3-0.9
		c0.6-0.3,1.3-0.4,2.2-0.4c0.6,0,1.2,0.1,1.8,0.2c0.6,0.2,1.1,0.4,1.5,0.7c0.4,0.3,0.8,0.7,1,1.2c0.3,0.5,0.4,1.1,0.4,1.7h-1.2
		c0-0.5-0.1-0.9-0.3-1.3c-0.2-0.4-0.4-0.7-0.8-0.9c-0.3-0.2-0.7-0.4-1.1-0.5c-0.4-0.1-0.8-0.2-1.3-0.2c-0.4,0-0.8,0-1.2,0.1
		c-0.4,0.1-0.7,0.2-1,0.4c-0.3,0.2-0.5,0.5-0.7,0.8c-0.2,0.3-0.3,0.7-0.3,1.2c0,0.3,0,0.6,0.1,0.8c0.1,0.2,0.2,0.4,0.4,0.6
		c0.2,0.2,0.4,0.3,0.6,0.4c0.2,0.1,0.5,0.2,0.7,0.2l3.1,0.8c0.4,0.1,0.9,0.3,1.3,0.4c0.4,0.2,0.7,0.4,1,0.6c0.3,0.3,0.5,0.6,0.7,0.9
		c0.2,0.4,0.3,0.8,0.3,1.3c0,0.1,0,0.3,0,0.6c0,0.2-0.1,0.5-0.2,0.8c-0.1,0.3-0.3,0.5-0.5,0.8c-0.2,0.3-0.5,0.5-0.8,0.7
		c-0.4,0.2-0.8,0.4-1.3,0.5c-0.5,0.1-1.2,0.2-1.9,0.2s-1.4-0.1-2.1-0.3c-0.6-0.2-1.2-0.4-1.6-0.8c-0.4-0.4-0.8-0.8-1-1.4
		c-0.2-0.6-0.3-1.2-0.3-2h1.2C169.3,64.5,169.4,65,169.7,65.5z"/>
</g>
</svg>
